# xmcd
#
# Track frame offsets:
#	150
#	19223
#	38579
#	59404
#	79284
#	95694
#	112434
#	126438
#	146784
#	165602
#	181851
#	207379
#	221178
#	235359
#	251718
#	269996
#	285485
#	303485
#	320317
#	338353
#
# Disc length: 4763 seconds
#
# Revision: 1
# Processed by: cddbd v1.5.2PL0 Copyright (c) Steve Scherf et al.
# Submitted via: EasyCDDAExtractor 15.3.0.1
#
DISCID=3e129914
DTITLE=Yolandita Monge - Personalidad
DYEAR=2015
DGENRE=Latin
TTITLE0=Quitame Ese Hombre Del Corazon
TTITLE1=El Amor
TTITLE2=Este Amor Que Hay Que Callar
TTITLE3=Debil
TTITLE4=La Distancia
TTITLE5=Si
TTITLE6=Aceptame Como Soy
TTITLE7=La Sombra De Lo Que Fui
TTITLE8=Ahora, Ahora
TTITLE9=Como Lo Hago Yo
TTITLE10=Laberinto De Amor
TTITLE11=Paginas Del Alma
TTITLE12=Seras Mio
TTITLE13=Al Ritmo De La Fantasia
TTITLE14=Borinqueña
TTITLE15=Luz De Luna
TTITLE16=Sin Amor
TTITLE17=Una Historia De Amor
TTITLE18=Tanto Amor
TTITLE19=Cambiando La Rutina De Vivir
EXTD=
EXTT0=
EXTT1=
EXTT2=
EXTT3=
EXTT4=
EXTT5=
EXTT6=
EXTT7=
EXTT8=
EXTT9=
EXTT10=
EXTT11=
EXTT12=
EXTT13=
EXTT14=
EXTT15=
EXTT16=
EXTT17=
EXTT18=
EXTT19=
PLAYORDER=
